HIERARCHY
ROOT Hips
{
	OFFSET -0.001795 -0.223333 0.028219
	CHANNELS 6 Xposition Yposition Zposition Zrotation Yrotation Xrotation 
	JOINT LeftUpLeg
	{
		OFFSET 0.069520 -0.091406 -0.006815
		CHANNELS 3 Zrotation Yrotation Xrotation
		JOINT LeftLeg
		{
			OFFSET 0.034277 -0.375199 -0.004496
			CHANNELS 3 Zrotation Yrotation Xrotation
			JOINT LeftFoot
			{
				OFFSET -0.013596 -0.397961 -0.043693
				CHANNELS 3 Zrotation Yrotation Xrotation
				JOINT LeftToe
				{
					OFFSET 0.026358 -0.055791 0.119288
					CHANNELS 3 Zrotation Yrotation Xrotation
					End Site
					{
						OFFSET 0.000000 0.000000 0.000000
					}
				}
			}
		}
	}
	JOINT RightUpLeg
	{
		OFFSET -0.067670 -0.090522 -0.004320
		CHANNELS 3 Zrotation Yrotation Xrotation
		JOINT RightLeg
		{
			OFFSET -0.038290 -0.382569 -0.008850
			CHANNELS 3 Zrotation Yrotation Xrotation
			JOINT RightFoot
			{
				OFFSET 0.015774 -0.398415 -0.042312
				CHANNELS 3 Zrotation Yrotation Xrotation
				JOINT RightToe
				{
					OFFSET -0.025372 -0.048144 0.123348
					CHANNELS 3 Zrotation Yrotation Xrotation
					End Site
					{
						OFFSET 0.000000 0.000000 0.000000
					}
				}
			}
		}
	}
	JOINT Spine
	{
		OFFSET -0.002533 0.108963 -0.026696
		CHANNELS 3 Zrotation Yrotation Xrotation
		JOINT Spine1
		{
			OFFSET 0.005487 0.135180 0.001092
			CHANNELS 3 Zrotation Yrotation Xrotation
			JOINT Spine2
			{
				OFFSET 0.001457 0.052922 0.025425
				CHANNELS 3 Zrotation Yrotation Xrotation
				JOINT Neck
				{
					OFFSET -0.002778 0.213870 -0.042857
					CHANNELS 3 Zrotation Yrotation Xrotation
					JOINT Head
					{
						OFFSET 0.005152 0.064970 0.051349
						CHANNELS 3 Zrotation Yrotation Xrotation
						End Site
						{
							OFFSET 0.000000 0.000000 0.000000
						}
					}
				}
				JOINT LeftShoulder
				{
					OFFSET 0.078845 0.121749 -0.034090
					CHANNELS 3 Zrotation Yrotation Xrotation
					JOINT LeftArm
					{
						OFFSET 0.090977 0.030469 -0.008868
						CHANNELS 3 Zrotation Yrotation Xrotation
						JOINT LeftForeArm
						{
							OFFSET 0.259612 -0.012772 -0.027456
							CHANNELS 3 Zrotation Yrotation Xrotation
							JOINT LeftHand
							{
								OFFSET 0.249234 0.008986 -0.001171
								CHANNELS 3 Zrotation Yrotation Xrotation
								End Site
								{
									OFFSET 0.000000 0.000000 0.000000
								}
							}
						}
					}
				}
				JOINT RightShoulder
				{
					OFFSET -0.081759 0.118833 -0.038615
					CHANNELS 3 Zrotation Yrotation Xrotation
					JOINT RightArm
					{
						OFFSET -0.096012 0.032551 -0.009143
						CHANNELS 3 Zrotation Yrotation Xrotation
						JOINT RightForeArm
						{
							OFFSET -0.253742 -0.013329 -0.021401
							CHANNELS 3 Zrotation Yrotation Xrotation
							JOINT RightHand
							{
								OFFSET -0.255298 0.007772 -0.005559
								CHANNELS 3 Zrotation Yrotation Xrotation
								End Site
								{
									OFFSET 0.000000 0.000000 0.000000
								}
							}
						}
					}
				}
			}
		}
	}
}
MOTION
Frames: 15
Frame Time: 0.050000
0.000000 0.949436 0.000000 -2.208988 4.089494 7.573399 5.575240 -0.408750 -4.491549 1.540678 0.151677 -6.630378 1.392291 7.119782 11.292100 0.000000 0.000000 0.000000 -3.989298 0.623613 -7.418040 -0.238102 -0.038035 -1.569473 -1.635737 -7.246679 10.833434 0.000000 0.000000 0.000000 0.726045 0.175799 -4.554988 1.051356 -0.262003 -4.826907 0.093177 -1.705669 4.381185 0.937949 0.340741 -12.510771 0.000000 0.000000 0.000000 -17.069052 3.671498 -3.636452 -56.365828 -5.529147 -4.044128 -10.382350 -16.984302 2.155698 0.000000 0.000000 0.000000 14.540679 -2.659082 -2.554953 60.428339 5.592576 -2.924940 5.069912 14.844999 1.051132 0.000000 0.000000 0.000000 
0.000255 0.948450 0.000361 -2.371008 3.234708 7.937169 4.971146 -0.393382 -4.284533 3.004081 0.130255 -7.356782 1.671177 7.502680 11.353500 0.000000 0.000000 0.000000 -4.228104 0.647692 -7.745622 0.319422 -0.082337 -1.310027 -0.868338 -5.769324 10.570496 0.000000 0.000000 0.000000 1.128467 0.186978 -4.714273 0.135943 0.116673 -4.986943 0.797367 -1.350035 3.951168 0.160993 0.839456 -12.858329 0.000000 0.000000 0.000000 -18.124801 4.677375 -4.271346 -55.716821 -5.010427 -4.190466 -11.427524 -17.631359 2.408740 0.000000 0.000000 0.000000 14.187674 -3.383958 -2.929189 60.869789 4.707774 -3.354038 5.772000 15.826322 1.203979 0.000000 0.000000 0.000000 
0.000461 0.947994 0.000448 -2.177623 3.741191 7.863480 4.820916 -0.394241 -4.249750 3.230144 0.088777 -6.777546 1.182210 6.611706 10.864716 0.000000 0.000000 0.000000 -4.270623 0.636932 -7.699028 0.238950 -0.062632 -0.986993 -1.617714 -7.014243 9.831639 0.000000 0.000000 0.000000 0.856837 0.170669 -4.420807 0.330238 0.085339 -6.127435 0.231597 -1.925451 4.402046 -0.023173 0.914659 -12.460472 0.000000 0.000000 0.000000 -17.208702 4.036613 -3.754485 -56.228665 -4.805625 -4.374923 -11.154795 -17.509132 2.357961 0.000000 0.000000 0.000000 15.600642 -2.633236 -2.756922 59.582697 4.507320 -3.443604 5.425419 15.114655 1.102431 0.000000 0.000000 0.000000 
0.000647 0.947575 0.000550 -2.604628 3.547300 8.091184 4.834340 -0.411529 -4.577539 3.866847 0.066227 -6.845184 1.303067 6.843272 11.032601 0.000000 0.000000 0.000000 -4.259648 0.696117 -8.597583 0.637665 -0.084078 -0.418993 -1.670825 -7.189602 10.022234 0.000000 0.000000 0.000000 1.090673 0.175628 -4.505956 -0.344523 0.342853 -5.727795 1.128791 -2.653745 3.368670 -0.508217 1.098703 -11.754998 0.000000 0.000000 0.000000 -16.848838 4.806468 -3.906960 -57.183489 -4.843360 -4.321419 -11.046761 -17.430318 2.358296 0.000000 0.000000 0.000000 14.842967 -2.577366 -2.854620 59.360974 4.153567 -3.516851 6.560951 15.136081 1.200101 0.000000 0.000000 0.000000 
0.000764 0.947534 0.000569 -2.459884 4.133323 7.907779 4.668158 -0.405897 -4.423951 4.035080 0.067070 -6.945032 0.793036 6.089072 11.090859 0.000000 0.000000 0.000000 -4.289646 0.675351 -8.420810 0.579137 -0.077808 -0.395334 -2.181608 -8.131445 9.967199 0.000000 0.000000 0.000000 0.790457 0.164972 -4.319853 -0.075874 0.245904 -5.850845 0.825839 -3.026346 3.512849 -0.778985 1.277702 -11.799143 0.000000 0.000000 0.000000 -16.689385 4.469188 -3.713357 -57.160141 -5.139603 -4.195351 -11.618849 -17.151545 2.404324 0.000000 0.000000 0.000000 14.798401 -2.715561 -2.907007 59.162500 4.234657 -3.481168 7.321517 14.774551 1.252085 0.000000 0.000000 0.000000 
0.000883 0.947711 0.000558 -2.485641 4.138299 8.003749 4.505230 -0.407010 -4.447115 4.446527 0.058718 -7.065926 0.905304 6.294180 11.144335 0.000000 0.000000 0.000000 -4.352648 0.688677 -8.689386 0.543331 -0.068216 -0.224235 -2.107283 -8.029326 10.193085 0.000000 0.000000 0.000000 0.576262 0.168608 -4.415574 -0.031907 0.226773 -5.821488 1.112825 -3.404770 3.466082 -0.789404 1.246006 -11.712985 0.000000 0.000000 0.000000 -16.904021 4.823963 -3.841775 -57.116143 -5.170087 -4.173607 -11.797647 -17.204022 2.452565 0.000000 0.000000 0.000000 14.513624 -2.468074 -2.824075 59.034462 4.392921 -3.403925 7.482318 14.511954 1.234479 0.000000 0.000000 0.000000 
0.000951 0.947600 0.000474 -2.449442 4.218017 7.944139 4.372989 -0.397182 -4.275452 4.500537 0.073973 -7.319038 0.886989 6.426188 11.620396 0.000000 0.000000 0.000000 -4.182417 0.696700 -8.731595 0.279153 -0.033427 -0.056544 -2.126444 -8.045316 10.131156 0.000000 0.000000 0.000000 0.411029 0.163963 -4.315747 0.085090 0.176453 -5.712320 0.977160 -3.725153 3.445425 -0.774487 1.234127 -12.048653 0.000000 0.000000 0.000000 -16.950550 4.902388 -3.840336 -56.934630 -5.037492 -4.222732 -12.177446 -17.163145 2.511736 0.000000 0.000000 0.000000 14.429090 -2.215644 -2.734655 58.860307 4.342927 -3.420644 7.934756 14.789685 1.304782 0.000000 0.000000 0.000000 
0.001053 0.947635 0.000330 -2.440772 4.200638 8.061078 4.255487 -0.406076 -4.438306 4.698303 0.071306 -7.384404 1.103583 6.794775 11.675437 0.000000 0.000000 0.000000 -4.114709 0.715073 -8.972366 0.217610 -0.018496 0.168570 -2.265972 -8.283425 9.928999 0.000000 0.000000 0.000000 0.353407 0.164728 -4.342094 0.108881 0.160729 -5.555236 0.883736 -3.646580 3.198676 -0.687830 1.157577 -11.486362 0.000000 0.000000 0.000000 -17.070816 4.771352 -3.812852 -56.504869 -5.050562 -4.164553 -12.093792 -17.144707 2.490648 0.000000 0.000000 0.000000 14.396929 -2.290357 -2.756266 58.753883 4.279926 -3.416830 8.282004 15.022077 1.367089 0.000000 0.000000 0.000000 
0.001162 0.947708 0.000178 -2.502363 4.292170 8.038987 4.239977 -0.406461 -4.440620 4.808163 0.073055 -7.463915 1.143131 6.922803 11.846050 0.000000 0.000000 0.000000 -3.983939 0.725416 -9.064936 0.121584 -0.001605 0.335657 -2.305410 -8.343243 9.887169 0.000000 0.000000 0.000000 0.332966 0.161578 -4.270089 0.172240 0.133458 -5.487878 0.876995 -3.726389 3.033220 -0.768697 1.188472 -11.098175 0.000000 0.000000 0.000000 -17.042979 4.750493 -3.796550 -56.319416 -4.956725 -4.180398 -12.079758 -16.758192 2.428376 0.000000 0.000000 0.000000 14.479815 -2.232933 -2.749418 58.299604 4.362566 -3.329925 8.519400 15.189976 1.409356 0.000000 0.000000 0.000000 
0.001264 0.947869 0.000070 -2.575862 4.147187 7.982389 4.135671 -0.403232 -4.419429 4.980346 0.061675 -7.401492 1.288161 7.108503 11.736820 0.000000 0.000000 0.000000 -3.880861 0.736795 -9.155744 0.122474 0.002656 0.452938 -2.304332 -8.335766 9.778036 0.000000 0.000000 0.000000 0.375343 0.164074 -4.315164 0.134601 0.140518 -5.310395 0.863654 -3.606415 2.904175 -0.862245 1.226434 -10.571696 0.000000 0.000000 0.000000 -16.969568 4.640384 -3.740685 -56.098218 -4.772476 -4.238828 -11.873881 -16.527881 2.360410 0.000000 0.000000 0.000000 14.405521 -2.057847 -2.649938 58.103814 4.511193 -3.231850 8.714839 15.326588 1.446040 0.000000 0.000000 0.000000 
0.001309 0.947883 0.000009 -2.608967 3.960949 7.922829 4.179793 -0.396270 -4.321445 5.004300 0.059873 -7.400702 1.479616 7.415373 11.801052 0.000000 0.000000 0.000000 -3.888100 0.743545 -9.248178 0.067104 0.012214 0.536600 -2.304373 -8.384998 9.908454 0.000000 0.000000 0.000000 0.400557 0.165895 -4.344494 0.096842 0.150316 -5.205295 0.885698 -3.504317 2.809595 -0.922333 1.244048 -10.148781 0.000000 0.000000 0.000000 -17.065883 4.760905 -3.815438 -55.901021 -4.601882 -4.296191 -11.422286 -16.146734 2.239342 0.000000 0.000000 0.000000 14.372681 -2.066106 -2.654112 57.971534 4.743703 -3.100623 8.852724 15.546849 1.483912 0.000000 0.000000 0.000000 
0.001285 0.947898 -0.000022 -2.636778 3.836785 8.012161 4.292177 -0.398899 -4.357556 4.978052 0.070877 -7.539738 1.502476 7.483981 11.963253 0.000000 0.000000 0.000000 -3.913428 0.753212 -9.386517 0.034515 0.018740 0.609233 -2.320895 -8.433943 9.914483 0.000000 0.000000 0.000000 0.447562 0.174080 -4.535375 0.022751 0.172423 -5.011495 0.882906 -3.469113 2.600828 -0.886671 1.213816 -10.058491 0.000000 0.000000 0.000000 -16.967626 4.925251 -3.883775 -55.806185 -4.467352 -4.328470 -10.921562 -15.725598 2.108356 0.000000 0.000000 0.000000 14.322530 -2.110707 -2.680565 57.901096 4.843922 -3.026093 8.963944 15.652969 1.505759 0.000000 0.000000 0.000000 
0.001203 0.947938 -0.000064 -2.679338 3.600396 8.067618 4.316500 -0.399619 -4.389874 5.011733 0.067545 -7.518625 1.603266 7.628739 11.998695 0.000000 0.000000 0.000000 -3.843611 0.766396 -9.492386 -0.082369 0.033963 0.651865 -2.215992 -8.264268 9.973575 0.000000 0.000000 0.000000 0.507898 0.179422 -4.638773 0.025968 0.168308 -5.016893 0.899146 -3.369040 2.613847 -0.864981 1.183237 -9.781340 0.000000 0.000000 0.000000 -17.094527 5.040229 -3.954219 -55.602558 -4.235772 -4.421125 -10.556693 -15.478397 2.024943 0.000000 0.000000 0.000000 14.412723 -2.017772 -2.654653 57.746817 4.902082 -2.988267 9.039127 15.991142 1.550963 0.000000 0.000000 0.000000 
0.001123 0.948027 -0.000155 -2.734113 3.469863 8.101946 4.458392 -0.403061 -4.455844 4.962757 0.067605 -7.498958 1.625450 7.721188 12.255699 0.000000 0.000000 0.000000 -3.812412 0.777265 -9.611591 -0.115854 0.040124 0.710380 -2.203065 -8.234195 9.881677 0.000000 0.000000 0.000000 0.566734 0.181514 -4.670679 -0.019166 0.183518 -4.962183 0.898454 -3.204899 2.538120 -0.872943 1.180007 -9.486024 0.000000 0.000000 0.000000 -17.085205 5.017445 -3.960936 -55.593868 -4.015336 -4.513102 -10.117963 -15.261812 1.933745 0.000000 0.000000 0.000000 14.528650 -1.920610 -2.609701 57.633843 4.882631 -2.979470 9.057750 16.270125 1.586091 0.000000 0.000000 0.000000 
0.001054 0.948060 -0.000262 -2.698273 3.551090 8.221804 4.510388 -0.412731 -4.604545 4.896873 0.070283 -7.495086 1.631770 7.770289 12.362344 0.000000 0.000000 0.000000 -3.879078 0.780676 -9.717846 -0.119191 0.041612 0.739661 -2.224319 -8.271823 9.904776 0.000000 0.000000 0.000000 0.534940 0.184604 -4.762839 0.032146 0.165433 -5.031042 0.886399 -3.198992 2.582101 -0.857920 1.178334 -9.581841 0.000000 0.000000 0.000000 -17.027193 5.118186 -4.014798 -55.586573 -3.952670 -4.542728 -9.840499 -15.255793 1.895029 0.000000 0.000000 0.000000 14.539667 -1.772801 -2.528601 57.596780 4.961745 -2.941033 8.767434 16.229840 1.548223 0.000000 0.000000 0.000000 
